<svg width="273" height="116" viewBox="0 0 273 116" fill="none" xmlns="http://www.w3.org/2000/svg">
<path d="M28.0909 22H32.4545C31.1591 15.25 25.5 10.6136 18.1364 10.6136C9.1875 10.6136 2.86364 17.5 2.86364 28.5455C2.86364 39.5909 9.13636 46.4773 18.4091 46.4773C26.7273 46.4773 32.6591 40.9375 32.6591 32.2955V28.5455H19.3636V32.2955H28.5682C28.4489 38.5682 24.3239 42.5227 18.4091 42.5227C11.9318 42.5227 6.95455 37.6136 6.95455 28.5455C6.95455 19.4773 11.9318 14.5682 18.1364 14.5682C23.1818 14.5682 26.608 17.4148 28.0909 22ZM38.5377 46H42.5604V29.4318C42.5604 25.8864 45.3559 23.2955 49.1741 23.2955C50.2479 23.2955 51.3559 23.5 51.6286 23.5682V19.4773C51.1684 19.4432 50.1116 19.4091 49.515 19.4091C46.3786 19.4091 43.6513 21.1818 42.6968 23.7727H42.4241V19.8182H38.5377V46ZM63.2856 46.6136C67.8538 46.6136 70.2402 44.1591 71.0583 42.4545H71.2629V46H75.2856V28.75C75.2856 20.4318 68.9447 19.4773 65.6038 19.4773C61.6493 19.4773 57.1493 20.8409 55.1038 25.6136L58.922 26.9773C59.8083 25.0682 61.9049 23.0227 65.7402 23.0227C69.439 23.0227 71.2629 24.983 71.2629 28.3409V28.4773C71.2629 30.4205 69.2856 30.25 64.5129 30.8636C59.6549 31.4943 54.3538 32.5682 54.3538 38.5682C54.3538 43.6818 58.3083 46.6136 63.2856 46.6136ZM63.8993 43C60.6947 43 58.3765 41.5682 58.3765 38.7727C58.3765 35.7045 61.172 34.75 64.3083 34.3409C66.0129 34.1364 70.5811 33.6591 71.2629 32.8409V36.5227C71.2629 39.7955 68.672 43 63.8993 43ZM81.0619 46H101.585V42.25H86.6529V41.9773L101.107 23.0227V19.8182H81.5392V23.5682H95.9256V23.8409L81.0619 42.9318V46ZM106.965 46H110.987V19.8182H106.965V46ZM109.01 15.4545C110.578 15.4545 111.874 14.2273 111.874 12.7273C111.874 11.2273 110.578 10 109.01 10C107.442 10 106.147 11.2273 106.147 12.7273C106.147 14.2273 107.442 15.4545 109.01 15.4545ZM128.517 46.5455C133.835 46.5455 137.721 43.8864 138.948 39.9318L135.062 38.8409C134.039 41.5682 131.67 42.9318 128.517 42.9318C123.795 42.9318 120.539 39.8807 120.352 34.2727H139.357V32.5682C139.357 22.8182 133.562 19.4773 128.107 19.4773C121.017 19.4773 116.312 25.0682 116.312 33.1136C116.312 41.1591 120.948 46.5455 128.517 46.5455ZM120.352 30.7955C120.625 26.7216 123.505 23.0909 128.107 23.0909C132.471 23.0909 135.267 26.3636 135.267 30.7955H120.352ZM148.684 11.0909H144.661V46H148.684V11.0909ZM159.258 11.0909H155.235V46H159.258V11.0909ZM173.515 46.6136C178.083 46.6136 180.469 44.1591 181.287 42.4545H181.492V46H185.515V28.75C185.515 20.4318 179.174 19.4773 175.833 19.4773C171.878 19.4773 167.378 20.8409 165.333 25.6136L169.151 26.9773C170.037 25.0682 172.134 23.0227 175.969 23.0227C179.668 23.0227 181.492 24.983 181.492 28.3409V28.4773C181.492 30.4205 179.515 30.25 174.742 30.8636C169.884 31.4943 164.583 32.5682 164.583 38.5682C164.583 43.6818 168.537 46.6136 173.515 46.6136ZM174.128 43C170.924 43 168.606 41.5682 168.606 38.7727C168.606 35.7045 171.401 34.75 174.537 34.3409C176.242 34.1364 180.81 33.6591 181.492 32.8409V36.5227C181.492 39.7955 178.901 43 174.128 43Z" fill="#696057"/>
<path d="M103.227 104H107.455V88.3864H122.591V84.6364H107.455V72.8409H124.159V69.0909H103.227V104ZM139.093 104.545C144.411 104.545 148.298 101.886 149.525 97.9318L145.639 96.8409C144.616 99.5682 142.247 100.932 139.093 100.932C134.372 100.932 131.116 97.8807 130.928 92.2727H149.934V90.5682C149.934 80.8182 144.139 77.4773 138.684 77.4773C131.593 77.4773 126.889 83.0682 126.889 91.1136C126.889 99.1591 131.525 104.545 139.093 104.545ZM130.928 88.7955C131.201 84.7216 134.082 81.0909 138.684 81.0909C143.048 81.0909 145.843 84.3636 145.843 88.7955H130.928ZM155.237 104H159.26V87.4318C159.26 83.8864 162.056 81.2955 165.874 81.2955C166.948 81.2955 168.056 81.5 168.328 81.5682V77.4773C167.868 77.4432 166.811 77.4091 166.215 77.4091C163.078 77.4091 160.351 79.1818 159.396 81.7727H159.124V77.8182H155.237V104ZM172.281 104H176.303V87.4318C176.303 83.8864 179.099 81.2955 182.917 81.2955C183.991 81.2955 185.099 81.5 185.372 81.5682V77.4773C184.911 77.4432 183.855 77.4091 183.258 77.4091C180.122 77.4091 177.394 79.1818 176.44 81.7727H176.167V77.8182H172.281V104ZM197.029 104.614C201.597 104.614 203.983 102.159 204.801 100.455H205.006V104H209.029V86.75C209.029 78.4318 202.688 77.4773 199.347 77.4773C195.392 77.4773 190.892 78.8409 188.847 83.6136L192.665 84.9773C193.551 83.0682 195.648 81.0227 199.483 81.0227C203.182 81.0227 205.006 82.983 205.006 86.3409V86.4773C205.006 88.4205 203.029 88.25 198.256 88.8636C193.398 89.4943 188.097 90.5682 188.097 96.5682C188.097 101.682 192.051 104.614 197.029 104.614ZM197.642 101C194.438 101 192.12 99.5682 192.12 96.7727C192.12 93.7045 194.915 92.75 198.051 92.3409C199.756 92.1364 204.324 91.6591 205.006 90.8409V94.5227C205.006 97.7955 202.415 101 197.642 101ZM215.555 104H219.578V87.4318C219.578 83.8864 222.373 81.2955 226.191 81.2955C227.265 81.2955 228.373 81.5 228.646 81.5682V77.4773C228.186 77.4432 227.129 77.4091 226.532 77.4091C223.396 77.4091 220.669 79.1818 219.714 81.7727H219.441V77.8182H215.555V104ZM240.303 104.614C244.871 104.614 247.257 102.159 248.076 100.455H248.28V104H252.303V86.75C252.303 78.4318 245.962 77.4773 242.621 77.4773C238.667 77.4773 234.167 78.8409 232.121 83.6136L235.939 84.9773C236.826 83.0682 238.922 81.0227 242.757 81.0227C246.456 81.0227 248.28 82.983 248.28 86.3409V86.4773C248.28 88.4205 246.303 88.25 241.53 88.8636C236.672 89.4943 231.371 90.5682 231.371 96.5682C231.371 101.682 235.326 104.614 240.303 104.614ZM240.917 101C237.712 101 235.394 99.5682 235.394 96.7727C235.394 93.7045 238.189 92.75 241.326 92.3409C243.03 92.1364 247.598 91.6591 248.28 90.8409V94.5227C248.28 97.7955 245.689 101 240.917 101Z" fill="#696057"/>
</svg>
